<svg xmlns="http://www.w3.org/2000/svg" width="24" height="24" viewBox="0 0 24 24">
  <g id="vuesax_bulk_notification-status" data-name="vuesax/bulk/notification-status" transform="translate(-360 -188)">
    <g id="notification-status">
      <path id="Vector" d="M6,3A3,3,0,1,1,3,0,3,3,0,0,1,6,3Z" transform="translate(376 190)" fill="#fff"/>
      <path id="Vector-2" data-name="Vector" d="M17,6.5A4.507,4.507,0,0,1,12.5,2a4.51,4.51,0,0,1,.49-2H5.52C2.07,0,0,2.06,0,5.52v7.95C0,16.94,2.07,19,5.52,19h7.95c3.46,0,5.52-2.06,5.52-5.52V6.01A4.434,4.434,0,0,1,17,6.5Z" transform="translate(362 191)" fill="#fff" opacity="0.4"/>
      <path id="Vector-3" data-name="Vector" d="M5.75,1.5h-5A.755.755,0,0,1,0,.75.755.755,0,0,1,.75,0h5A.755.755,0,0,1,6.5.75.755.755,0,0,1,5.75,1.5Z" transform="translate(366 200.5)" fill="#fff"/>
      <path id="Vector-4" data-name="Vector" d="M9.75,1.5h-9A.755.755,0,0,1,0,.75.755.755,0,0,1,.75,0h9a.755.755,0,0,1,.75.75A.755.755,0,0,1,9.75,1.5Z" transform="translate(366 204.5)" fill="#fff"/>
      <path id="Vector-5" data-name="Vector" d="M0,0H24V24H0Z" transform="translate(360 188)" fill="none" opacity="0"/>
    </g>
  </g>
</svg>
