<svg xmlns="http://www.w3.org/2000/svg" width="24" height="24" viewBox="0 0 24 24">
  <g id="vuesax_bulk_profile-add" data-name="vuesax/bulk/profile-add" transform="translate(-364 -252)">
    <g id="profile-add">
      <path id="Vector" d="M4.75,0a4.746,4.746,0,0,0-.12,9.49.807.807,0,0,1,.22,0h.07A4.746,4.746,0,0,0,4.75,0Z"
        transform="translate(371.25 254)" fill="#0c96c5" />
      <path id="Vector-2" data-name="Vector"
        d="M12.12,1.395a9.929,9.929,0,0,0-10.15,0A3.947,3.947,0,0,0,0,4.625a3.914,3.914,0,0,0,1.96,3.21,9.239,9.239,0,0,0,5.08,1.41,9.239,9.239,0,0,0,5.08-1.41,3.945,3.945,0,0,0,1.96-3.23A3.937,3.937,0,0,0,12.12,1.395Z"
        transform="translate(368.96 264.755)" fill="#0c96c5" opacity="0.4" />
      <path id="Vector-3" data-name="Vector"
        d="M4.75,2H3.5V.75A.75.75,0,0,0,2,.75V2H.75a.75.75,0,0,0,0,1.5H2V4.75a.75.75,0,0,0,1.5,0V3.5H4.75a.75.75,0,0,0,0-1.5Z"
        transform="translate(373.25 266.63)" fill="#0c96c5" />
      <path id="Vector-4" data-name="Vector" d="M0,0H24V24H0Z" transform="translate(364 252)" fill="none" opacity="0" />
    </g>
  </g>
</svg>