<svg xmlns="http://www.w3.org/2000/svg" width="24" height="24" viewBox="0 0 24 24">
  <g id="vuesax_bulk_ruler_pen" data-name="vuesax/bulk/ruler&amp;pen" transform="translate(-236 -316)">
    <g id="ruler_pen" data-name="ruler&amp;pen">
      <path id="Vector" d="M10,3V17a3,3,0,0,1-3,3H3a3,3,0,0,1-3-3V3A3,3,0,0,1,3,0H7A3,3,0,0,1,10,3Z" transform="translate(247.47 318)" fill="#fff" opacity="0.4"/>
      <path id="Vector-2" data-name="Vector" d="M5.75.75A.755.755,0,0,1,5,1.5H0V0H5A.755.755,0,0,1,5.75.75Z" transform="translate(247.47 321.25)" fill="#fff"/>
      <path id="Vector-3" data-name="Vector" d="M4.65.75a.749.749,0,0,1-.75.75H0V0H3.9A.749.749,0,0,1,4.65.75Z" transform="translate(247.47 333.25)" fill="#fff"/>
      <path id="Vector-4" data-name="Vector" d="M5.75.81A.753.753,0,0,1,5,1.55H4.99L0,1.5V0L5,.05A.751.751,0,0,1,5.75.81Z" transform="translate(247.47 329.2)" fill="#fff"/>
      <path id="Vector-5" data-name="Vector" d="M3.56.75a.755.755,0,0,1-.75.75H0V0H2.81A.755.755,0,0,1,3.56.75Z" transform="translate(247.47 325.25)" fill="#fff"/>
      <path id="Vector-6" data-name="Vector" d="M5.91,2.95V15.91a3.494,3.494,0,0,1-.42,1.52l-.82,1.36c-.94,1.58-2.48,1.58-3.43,0L.43,17.43A3.374,3.374,0,0,1,0,15.91V2.95a2.955,2.955,0,0,1,5.91,0Z" transform="translate(238.53 318)" fill="#fff" opacity="0.4"/>
      <path id="Vector-7" data-name="Vector" d="M0,0H5.91V1.5H0Z" transform="translate(238.53 322.25)" fill="#fff"/>
      <path id="Vector-8" data-name="Vector" d="M0,0H24V24H0Z" transform="translate(236 316)" fill="none" opacity="0"/>
    </g>
  </g>
</svg>
