<svg xmlns="http://www.w3.org/2000/svg" width="56.001" height="56" viewBox="0 0 56.001 56"><defs><style>.a{fill:#0d9a89;}.b{fill:#eef3f7;}</style></defs><g transform="translate(-431.999 -182)"><path class="a" d="M-9193,13135a27.854,27.854,0,0,1-10.9-2.2,27.908,27.908,0,0,1-8.9-6,27.883,27.883,0,0,1-6-8.9,27.847,27.847,0,0,1-2.2-10.9,27.868,27.868,0,0,1,2.2-10.9,27.963,27.963,0,0,1,6-8.9,27.908,27.908,0,0,1,8.9-6,27.839,27.839,0,0,1,10.9-2.2v4a23.84,23.84,0,0,0-16.962,7.037A23.839,23.839,0,0,0-9217,13107a24.027,24.027,0,0,0,24,24,24.028,24.028,0,0,0,24-24h4a27.858,27.858,0,0,1-2.2,10.9,27.822,27.822,0,0,1-6,8.9,27.9,27.9,0,0,1-8.9,6A27.861,27.861,0,0,1-9193,13135Z" transform="translate(9653 -12897)"/><path class="b" d="M-9169,13107a24,24,0,0,0-24-24v-4a27.846,27.846,0,0,1,10.9,2.2,27.886,27.886,0,0,1,8.9,6,27.858,27.858,0,0,1,6,8.9,27.868,27.868,0,0,1,2.2,10.9Z" transform="translate(9653 -12897)"/><circle class="a" cx="2" cy="2" r="2" transform="translate(458 182)"/><circle class="a" cx="2" cy="2" r="2" transform="translate(484 208)"/></g></svg>