<svg xmlns="http://www.w3.org/2000/svg" width="50" height="50" viewBox="0 0 50 50">
  <g id="vuesax_bulk_search-status" data-name="vuesax/bulk/search-status" transform="translate(-684 -188)">
    <g id="search-status" transform="translate(684 188)">
      <path id="Vector"
        d="M14.18,3.151H1.576A1.587,1.587,0,0,1,0,1.576,1.587,1.587,0,0,1,1.576,0h12.6a1.587,1.587,0,0,1,1.576,1.576A1.587,1.587,0,0,1,14.18,3.151Z"
        transform="translate(16.084 19.26)" fill="#0d9a89" />
      <path id="Vector-2" data-name="Vector"
        d="M7.878,3.151h-6.3A1.587,1.587,0,0,1,0,1.576,1.587,1.587,0,0,1,1.576,0h6.3A1.587,1.587,0,0,1,9.454,1.576,1.587,1.587,0,0,1,7.878,3.151Z"
        transform="translate(16.115 25.507)" fill="#0d9a89" />
      <path id="Vector-3" data-name="Vector"
        d="M39.5,19.748A19.748,19.748,0,1,1,19.748,0,19.748,19.748,0,0,1,39.5,19.748Z"
        transform="translate(4.202 4.202)" fill="#0d9a89" opacity="0.4" />
      <path id="Vector-4" data-name="Vector"
        d="M5.362,6.833a1.463,1.463,0,0,1-1.029-.42L.425,2.505a1.484,1.484,0,0,1,0-2.08,1.484,1.484,0,0,1,2.08,0L6.413,4.333a1.484,1.484,0,0,1,0,2.08A1.551,1.551,0,0,1,5.362,6.833Z"
        transform="translate(38.966 38.966)" fill="#0d9a89" />
      <path id="Vector-5" data-name="Vector" d="M0,0H50V50H0Z" fill="none" opacity="0" />
    </g>
  </g>
</svg>