<svg xmlns="http://www.w3.org/2000/svg" width="60" height="60" viewBox="0 0 60 60">
  <g id="vuesax_bulk_messages" data-name="vuesax/bulk/messages" transform="translate(-556 -316)">
    <g id="messages" transform="translate(556 316)">
      <path id="Vector" d="M0,0H60V60H0Z" fill="none" opacity="0"/>
      <path id="Vector-2" data-name="Vector" d="M40.315,12.085V22.176a15.3,15.3,0,0,1-.1,1.892c-.58,6.812-4.592,10.192-11.984,10.192H27.222a2.031,2.031,0,0,0-1.615.807L22.58,39.1a2.855,2.855,0,0,1-4.844,0l-3.027-4.037a2.33,2.33,0,0,0-1.615-.807H12.085C4.037,34.261,0,32.267,0,22.176V12.085C0,4.693,3.406.681,10.192.1A15.3,15.3,0,0,1,12.085,0H28.231Q40.3,0,40.315,12.085Z" transform="translate(5.046 14.588)" fill="#0d9a89" opacity="0.4"/>
      <g id="Group" transform="translate(22.456 29.975)">
        <path id="Vector-3" data-name="Vector" d="M2.523,5.046A2.523,2.523,0,1,1,5.046,2.523,2.514,2.514,0,0,1,2.523,5.046Z" fill="#0d9a89"/>
      </g>
      <g id="Group-2" data-name="Group" transform="translate(31.199 29.975)">
        <path id="Vector-4" data-name="Vector" d="M2.523,5.046A2.523,2.523,0,1,1,5.046,2.523,2.514,2.514,0,0,1,2.523,5.046Z" fill="#0d9a89"/>
      </g>
      <g id="Group-3" data-name="Group" transform="translate(13.739 29.975)">
        <path id="Vector-5" data-name="Vector" d="M2.523,5.046A2.523,2.523,0,1,1,5.046,2.523,2.514,2.514,0,0,1,2.523,5.046Z" fill="#0d9a89"/>
      </g>
      <path id="Vector-6" data-name="Vector" d="M40.215,12.085V22.176q0,11.126-10.192,11.984a15.3,15.3,0,0,0,.1-1.892V22.176q0-12.072-12.085-12.085H1.892a15.3,15.3,0,0,0-1.892.1C.58,3.406,4.592,0,11.984,0H28.13Q40.2,0,40.215,12.085Z" transform="translate(14.689 5.046)" fill="#0d9a89"/>
    </g>
  </g>
</svg>
