<svg xmlns="http://www.w3.org/2000/svg" width="60" height="60" viewBox="0 0 60 60">
  <g id="vuesax_bulk_folder-open" data-name="vuesax/bulk/folder-open" transform="translate(-492 -188)">
    <g id="folder-open" transform="translate(492 188)">
      <path id="Vector" d="M46.942,3.675l-.4-.55A8.022,8.022,0,0,0,44.067,1.1,8.521,8.521,0,0,0,39.842,0H8.717A8.59,8.59,0,0,0,4.492,1.1,8.454,8.454,0,0,0,1.917,3.25,8.839,8.839,0,0,0,.042,9.575L.967,21.25c.325,3.525.75,7.875,8.675,7.875h29.3c7.925,0,8.325-4.35,8.675-7.9L48.542,9.6A8.411,8.411,0,0,0,46.942,3.675Zm-16.675,13.8H18.292a1.75,1.75,0,1,1,0-3.5H30.267a1.75,1.75,0,1,1,0,3.5Z" transform="translate(5.708 25.875)" fill="#0d9a89"/>
      <path id="Vector-2" data-name="Vector" d="M0,23.275a8.832,8.832,0,0,1,1.75-1.3,8.521,8.521,0,0,1,4.225-1.1h31.15a8.59,8.59,0,0,1,4.225,1.1A7.511,7.511,0,0,1,43.1,23.3V19.55c0-8.925-2.725-11.65-11.65-11.65H25.5c-1.1,0-1.125-.025-1.775-.875L20.725,3C19.3,1.15,18.175,0,14.6,0H11.65C2.725,0,0,2.725,0,11.65V23.275Z" transform="translate(8.45 5)" fill="#0d9a89" opacity="0.4"/>
      <path id="Vector-3" data-name="Vector" d="M0,0H60V60H0Z" fill="none" opacity="0"/>
    </g>
  </g>
</svg>
