<svg xmlns="http://www.w3.org/2000/svg" width="24" height="24" viewBox="0 0 24 24">
  <g id="vuesax_bulk_award" data-name="vuesax/bulk/award" transform="translate(-428 -188)">
    <g id="award">
      <path id="Vector" d="M13.85,2.922l-.14-.08-1.39-.8L9.45.382a3.332,3.332,0,0,0-3.1,0L3.48,2.042l-1.39.81-.18.1C.12,4.152,0,4.373,0,6.3v4.61c0,1.93.12,2.15,1.95,3.38l4.4,2.54a3.071,3.071,0,0,0,1.55.38,3.1,3.1,0,0,0,1.55-.38l4.44-2.57c1.79-1.2,1.91-1.42,1.91-3.35V6.3C15.8,4.373,15.68,4.153,13.85,2.922Z" transform="translate(432.1 192.788)" fill="#0d9a89" opacity="0.4"/>
      <path id="Vector-2" data-name="Vector" d="M0,5.64l1.39-.81L4.13,3.25l.13-.08a3.332,3.332,0,0,1,3.1,0l.13.08,2.74,1.58,1.39.8V3.49A3.149,3.149,0,0,0,8.13,0H3.48A3.141,3.141,0,0,0,0,3.49Z" transform="translate(434.19 190)" fill="#0d9a89"/>
      <path id="Vector-3" data-name="Vector" d="M5.891,2.872l-.62.76a.751.751,0,0,0-.16.48l.06.98a.643.643,0,0,1-.95.69l-.91-.36a.92.92,0,0,0-.52,0l-.91.36a.643.643,0,0,1-.95-.69l.06-.98a.751.751,0,0,0-.16-.48l-.62-.76a.644.644,0,0,1,.36-1.12l.95-.24a.794.794,0,0,0,.41-.31l.53-.82a.646.646,0,0,1,1.18,0l.53.82a.794.794,0,0,0,.41.31l.95.24A.644.644,0,0,1,5.891,2.872Z" transform="translate(436.949 198.467)" fill="#0d9a89"/>
      <path id="Vector-4" data-name="Vector" d="M0,0H24V24H0Z" transform="translate(428 188)" fill="none" opacity="0"/>
    </g>
  </g>
</svg>
