<svg xmlns="http://www.w3.org/2000/svg" width="24" height="24" viewBox="0 0 24 24">
  <g id="Group_8795" data-name="Group 8795" transform="translate(-305 -183)">
    <circle id="Ellipse_1005" data-name="Ellipse 1005" cx="12" cy="12" r="12" transform="translate(305 183)"
      fill="#f5f8fa" />
    <g id="Group_8794" data-name="Group 8794">
      <path id="Vector" d="M20,10A10,10,0,1,1,10,0,10,10,0,0,1,20,10Z" transform="translate(307 185)" fill="#f79d25" />
      <path id="Vector-2" data-name="Vector"
        d="M.75,6.5a.755.755,0,0,0,.75-.75v-5A.755.755,0,0,0,.75,0,.755.755,0,0,0,0,.75v5A.755.755,0,0,0,.75,6.5Z"
        transform="translate(316.25 190.25)" fill="#fff" />
      <path id="Vector-3" data-name="Vector"
        d="M1.92.615a1.155,1.155,0,0,0-.21-.33,1.155,1.155,0,0,0-.33-.21,1,1,0,0,0-.76,0,1.155,1.155,0,0,0-.33.21,1.155,1.155,0,0,0-.21.33A1,1,0,0,0,0,1a1,1,0,0,0,.08.38,1.032,1.032,0,0,0,.21.33,1.155,1.155,0,0,0,.33.21A1,1,0,0,0,1,2a1,1,0,0,0,.38-.08,1.155,1.155,0,0,0,.33-.21,1.032,1.032,0,0,0,.21-.33A1,1,0,0,0,2,1,1,1,0,0,0,1.92.615Z"
        transform="translate(316 198.005)" fill="#fff" />
    </g>
  </g>
</svg>