<svg xmlns="http://www.w3.org/2000/svg" width="24" height="24" viewBox="0 0 24 24">
  <g id="Group_9533" data-name="Group 9533" transform="translate(0 -0.001)">
    <rect id="Rectangle_4095" data-name="Rectangle 4095" width="24" height="24" transform="translate(0 0.001)" fill="none"/>
    <g id="Group_7767" data-name="Group 7767" transform="translate(2.001 2)">
      <path id="Path_1589" data-name="Path 1589" d="M21.4,8.353l-2.159,2.158L13.486,4.755,15.644,2.6a2.036,2.036,0,0,1,2.879,0L21.4,5.474a2.036,2.036,0,0,1,0,2.879ZM3.687,21.933l6.2-2.067L4.131,14.11l-2.067,6.2a1.283,1.283,0,0,0,1.627,1.623Z" transform="translate(-1.998 -2)" fill="#fff" opacity="0.3"/>
      <path id="Path_1590" data-name="Path 1590" d="M5.574,21.3l-1.882.628a1.284,1.284,0,0,1-1.624-1.623L2.7,18.423Zm-1.439-7.2,5.756,5.756,9.355-9.355L13.49,4.751Z" transform="translate(-1.998 -2)" fill="#fff"/>
    </g>
  </g>
</svg>
