<svg xmlns="http://www.w3.org/2000/svg" width="309.415" height="89.995" viewBox="0 0 309.415 89.995">
  <g id="Group_8577" data-name="Group 8577" transform="translate(-507.468 -40)">
    <g id="Group_8576" data-name="Group 8576" transform="translate(0 -0.006)">
      <path id="Subtraction_8" data-name="Subtraction 8" d="M.207,85.522a.171.171,0,0,1-.153-.094c-.228-.394-.023-2.59,6.783-14.443,3.959-6.895,9.377-13,14.617-18.9,5.919-6.667,11.51-12.965,13.705-19.215,3.928-11.188.572-22.177-7.807-25.562a12.429,12.429,0,0,0-4.679-.9,18.161,18.161,0,0,0-10.352,3.753H6.492C7.593,8.464,13.595,0,23.626,0a18.87,18.87,0,0,1,3.725.38,19.648,19.648,0,0,1,8.354,3.76,19.447,19.447,0,0,1,5.177,6.306,27.284,27.284,0,0,1,2.776,14.9,27.87,27.87,0,0,1-2.466,8.934,46.309,46.309,0,0,1-5.019,8.377c-3.988,5.42-9.04,10.521-13.926,15.454-3.47,3.5-6.747,6.812-9.55,10.123C6.682,75.341,2.584,81.017.518,85.106a1.613,1.613,0,0,1-.226.4A.216.216,0,0,1,.207,85.522Z" transform="translate(549.35 40.006)" fill="#e4265f"/>
      <path id="Subtraction_10" data-name="Subtraction 10" d="M37.483,75.134h0c-2.354-1.92-4.7-3.929-6.973-5.971h6.974v5.972ZM27.6,66.494l0,0A137.087,137.087,0,0,1,10.141,47.112H27.6V66.494ZM5.551,40l0,0h0A45.841,45.841,0,0,1,.867,28.756,24.665,24.665,0,0,1,.423,17.8a22.205,22.205,0,0,1,3.84-8.931A19.459,19.459,0,0,1,10.6,3.433C14.766,1.155,20.081,0,26.394,0c.4,0,.8,0,1.206.014v17.3H5.551V40Z" transform="translate(507.468 54.867)" fill="#e4265f"/>
      <path id="Subtraction_12" data-name="Subtraction 12" d="M47.152,69.236H39.1a121.206,121.206,0,0,1,8.052-10.569V69.235Zm-13.426,0H22.084V47.152H0V22.084H22.084V0H47.152V22.084h20.22c-2.566,5.165-7.361,10.509-12.439,16.167l0,0c-2.573,2.868-5.234,5.833-7.73,8.9h-.049v.06a79.678,79.678,0,0,0-7.183,10.2,121.822,121.822,0,0,0-6.135,11.57l-.108.254ZM69.236,47.152H57.909l.351-.351.072-.072c3.692-3.688,7.51-7.5,10.9-11.477v11.9Z" transform="translate(514.918 52.219)" fill="#0d9a89"/>
    </g>
    <g id="Group_8575" data-name="Group 8575" transform="translate(-4.871 -4.188)">
      <g id="Group_8574" data-name="Group 8574" transform="translate(-2.043)">
        <path id="Path_1871" data-name="Path 1871" d="M22.692,0h-6.7L8.851-12.691V0H3.043V-27.164h8.313q4.954,0,7.422,1.92a6.87,6.87,0,0,1,2.468,5.78,7.143,7.143,0,0,1-1.688,4.787,6.592,6.592,0,0,1-4.36,2.319ZM8.851-15.586h.872q3.525,0,4.657-.77a3.007,3.007,0,0,0,1.132-2.681A3.22,3.22,0,0,0,14.3-21.885q-1.215-.844-4.574-.844H8.851ZM24.325-3.451l3.229-3.655a4.952,4.952,0,0,0,1.967,2.366,5.544,5.544,0,0,0,3.043.863,4.974,4.974,0,0,0,3.229-.965,3.173,3.173,0,0,0,1.188-2.6q0-1.93-3.952-3.841-1.28-.612-2.022-1a15.085,15.085,0,0,1-4.936-3.627A6.688,6.688,0,0,1,24.7-20.132a6.8,6.8,0,0,1,2.663-5.52,10.619,10.619,0,0,1,6.912-2.162,9.723,9.723,0,0,1,4.258.863,8.66,8.66,0,0,1,3.164,2.7L38.26-20.967a4.2,4.2,0,0,0-1.624-1.772,4.8,4.8,0,0,0-2.44-.584,4.265,4.265,0,0,0-2.783.863,2.752,2.752,0,0,0-1.058,2.236q0,2.152,4.193,3.934.835.353,1.28.557a14.32,14.32,0,0,1,5.112,3.563A6.86,6.86,0,0,1,42.6-7.645a7.679,7.679,0,0,1-2.607,6.1,10.284,10.284,0,0,1-7,2.273A12.181,12.181,0,0,1,27.646-.353,7.227,7.227,0,0,1,24.325-3.451ZM70.712-27.164v16.9Q70.712-4.731,67.8-2T59.022.724Q53.066.724,50.153-2T47.24-10.261v-16.9h5.771V-11.17A7.489,7.489,0,0,0,54.5-6.114a5.577,5.577,0,0,0,4.435,1.7,5.7,5.7,0,0,0,4.49-1.707,7.37,7.37,0,0,0,1.521-5.047V-27.164ZM82.531-4.9H85.76q4.564,0,6.652-2.078T94.5-13.563q0-4.49-2.087-6.578T85.76-22.229H82.531ZM76.724,0V-27.164h7.4a30.6,30.6,0,0,1,6.9.612,12.063,12.063,0,0,1,4.435,2.041A11.752,11.752,0,0,1,99.2-19.881a15.181,15.181,0,0,1,1.271,6.355,15.041,15.041,0,0,1-1.3,6.411,11.717,11.717,0,0,1-3.8,4.611,12.2,12.2,0,0,1-4.128,1.92A28.5,28.5,0,0,1,84.591,0H76.724Z" transform="translate(617 88)" fill="#333"/>
        <path id="Path_1872" data-name="Path 1872" d="M1.3-3.451,4.527-7.106A4.952,4.952,0,0,0,6.494-4.741a5.544,5.544,0,0,0,3.043.863,4.974,4.974,0,0,0,3.229-.965,3.173,3.173,0,0,0,1.188-2.6q0-1.93-3.952-3.841-1.28-.612-2.022-1a15.085,15.085,0,0,1-4.936-3.627A6.688,6.688,0,0,1,1.67-20.132a6.8,6.8,0,0,1,2.663-5.52,10.619,10.619,0,0,1,6.912-2.162,9.723,9.723,0,0,1,4.258.863,8.66,8.66,0,0,1,3.164,2.7l-3.433,3.284a4.2,4.2,0,0,0-1.624-1.772,4.8,4.8,0,0,0-2.44-.584,4.265,4.265,0,0,0-2.783.863,2.752,2.752,0,0,0-1.058,2.236q0,2.152,4.193,3.934.835.353,1.28.557a14.32,14.32,0,0,1,5.112,3.563,6.86,6.86,0,0,1,1.661,4.527,7.679,7.679,0,0,1-2.607,6.1,10.284,10.284,0,0,1-7,2.273A12.181,12.181,0,0,1,4.62-.353,7.227,7.227,0,0,1,1.3-3.451ZM24.437,0V-27.164h5.808V0Zm9.648,0,4.138-27.164h6.086L49.541-11.17A13.247,13.247,0,0,1,49.9-9.7q.195.965.362,2.208.148-1.262.334-2.254a10.256,10.256,0,0,1,.353-1.457l5.325-15.957H62.27L66.426,0H60.915L58.93-16.384q-.223-1.818-.3-2.746t-.074-1.726q0-.427.009-.64t.028-.38q-.278,1.6-.529,2.755a16.5,16.5,0,0,1-.455,1.753L51.86,0H48.595L42.936-17.367q-.074-.241-.325-1.336t-.7-3.191v.8a39.466,39.466,0,0,1-.334,4.639l-.019.074L39.6,0ZM98.006-13.526A14.149,14.149,0,0,1,96.92-8.016a13.511,13.511,0,0,1-3.126,4.564,15.016,15.016,0,0,1-4.769,3.1A14.481,14.481,0,0,1,83.533.724a14.492,14.492,0,0,1-4.871-.844,15.059,15.059,0,0,1-4.37-2.421,13.864,13.864,0,0,1-3.924-4.88A13.914,13.914,0,0,1,69-13.526a14.1,14.1,0,0,1,1.076-5.5A13.609,13.609,0,0,1,73.235-23.6a14.591,14.591,0,0,1,4.741-3.08,14.659,14.659,0,0,1,5.557-1.095,14.474,14.474,0,0,1,5.52,1.095,14.858,14.858,0,0,1,4.741,3.08,13.709,13.709,0,0,1,3.136,4.583A14.118,14.118,0,0,1,98.006-13.526ZM83.533-4.453a7.956,7.956,0,0,0,6.1-2.588,9.164,9.164,0,0,0,2.4-6.485A9.22,9.22,0,0,0,89.6-20.021a7.913,7.913,0,0,0-6.067-2.635A7.989,7.989,0,0,0,77.41-20.03a9.211,9.211,0,0,0-2.431,6.5,9.168,9.168,0,0,0,2.394,6.5A8.04,8.04,0,0,0,83.533-4.453Z" transform="translate(722 88)" fill="#0d9a89"/>
      </g>
      <path id="Path_1873" data-name="Path 1873" d="M1.375,0V-11.437H2.719v5.086l4.8-5.086H9.148L4.242-6.289,9.633,0H7.875L2.719-6.156V0ZM16.652-3.508a2.815,2.815,0,0,0-.66-1.949A2.2,2.2,0,0,0,14.269-6.2a2.2,2.2,0,0,0-1.719.68,2.722,2.722,0,0,0-.617,1.9,2.925,2.925,0,0,0,.621,2,2.227,2.227,0,0,0,1.762.7A2.2,2.2,0,0,0,16.031-1.6,2.738,2.738,0,0,0,16.652-3.508Zm1.188-3.641V0H16.652V-1.3a3.125,3.125,0,0,1-1.1,1.191,2.8,2.8,0,0,1-1.5.41,3.159,3.159,0,0,1-2.48-1.059,4.058,4.058,0,0,1-.941-2.8,4.11,4.11,0,0,1,.914-2.809A3.089,3.089,0,0,1,14-7.406a2.936,2.936,0,0,1,1.559.4,2.9,2.9,0,0,1,1.066,1.2V-7.148ZM30.718,0V-4.211a2.491,2.491,0,0,0-.437-1.613,1.646,1.646,0,0,0-1.344-.527,2.088,2.088,0,0,0-.91.2,1.965,1.965,0,0,0-.707.566,1.813,1.813,0,0,0-.3.656A5.687,5.687,0,0,0,26.921-3.7V0h-1.18V-4.211A2.491,2.491,0,0,0,25.3-5.824a1.646,1.646,0,0,0-1.344-.527,2.139,2.139,0,0,0-.918.2,1.948,1.948,0,0,0-.715.566,1.767,1.767,0,0,0-.293.633,5.952,5.952,0,0,0-.09,1.258V0h-1.18V-7.148h1.2v1.1A2.964,2.964,0,0,1,23.022-7.07a2.927,2.927,0,0,1,1.422-.336,2.787,2.787,0,0,1,1.477.371,2.318,2.318,0,0,1,.922,1.082,3.148,3.148,0,0,1,1.09-1.094,2.885,2.885,0,0,1,1.457-.359,2.524,2.524,0,0,1,1.867.672,2.524,2.524,0,0,1,.672,1.867V0Zm3.871-10.594a.858.858,0,0,1,.262-.629.867.867,0,0,1,.637-.262.851.851,0,0,1,.629.266.88.88,0,0,1,.262.641.851.851,0,0,1-.258.625.86.86,0,0,1-.633.258.873.873,0,0,1-.637-.258A.863.863,0,0,1,34.588-10.594ZM34.877,0V-7.148h1.234V0ZM49.822.445,46.267-7.773,44.83,0H43.5l2.32-11.891,4,9.461,4-9.461L56.142,0H54.814L53.361-7.773Zm13.5-4.828A2.057,2.057,0,0,0,62.7-5.84a2.228,2.228,0,0,0-1.551-.512,2.134,2.134,0,0,0-1.484.535,2.153,2.153,0,0,0-.687,1.434Zm1.313.992H58.974v.109a2.619,2.619,0,0,0,.656,1.855,2.226,2.226,0,0,0,1.711.707,2.28,2.28,0,0,0,1.3-.387,3.381,3.381,0,0,0,1.023-1.168l.93.625A3.771,3.771,0,0,1,63.216-.187,3.747,3.747,0,0,1,61.278.3,3.447,3.447,0,0,1,58.638-.773,3.974,3.974,0,0,1,57.63-3.6a3.867,3.867,0,0,1,1-2.75,3.36,3.36,0,0,1,2.57-1.07,3.23,3.23,0,0,1,2.512,1.016,3.962,3.962,0,0,1,.926,2.773ZM67.024,0V-12.109h1.25V0Zm4,3.484L72.965-.7l-2.8-6.445h1.414l2.078,5.133,2.2-5.133H77.2L72.4,3.484ZM84.3-3.508a2.815,2.815,0,0,0-.66-1.949A2.2,2.2,0,0,0,81.922-6.2a2.2,2.2,0,0,0-1.719.68,2.722,2.722,0,0,0-.617,1.9,2.925,2.925,0,0,0,.621,2,2.227,2.227,0,0,0,1.762.7A2.2,2.2,0,0,0,83.683-1.6,2.738,2.738,0,0,0,84.3-3.508Zm1.188-3.641V0H84.3V-1.3a3.125,3.125,0,0,1-1.1,1.191,2.8,2.8,0,0,1-1.5.41A3.159,3.159,0,0,1,79.23-.754a4.058,4.058,0,0,1-.941-2.8A4.11,4.11,0,0,1,79.2-6.363a3.089,3.089,0,0,1,2.445-1.043,2.936,2.936,0,0,1,1.559.4,2.9,2.9,0,0,1,1.066,1.2V-7.148ZM88.417,0V-7.148h1.2v1.1A3,3,0,0,1,90.722-7.07a3.216,3.216,0,0,1,1.5-.336,2.763,2.763,0,0,1,1.977.672,2.445,2.445,0,0,1,.711,1.867V0h-1.25V-4.211A2.415,2.415,0,0,0,93.2-5.824a1.768,1.768,0,0,0-1.41-.527,2.43,2.43,0,0,0-1,.2,1.97,1.97,0,0,0-.746.566,1.734,1.734,0,0,0-.324.641,5.439,5.439,0,0,0-.1,1.25V0Zm9.167-10.594a.858.858,0,0,1,.262-.629.867.867,0,0,1,.637-.262.851.851,0,0,1,.629.266.88.88,0,0,1,.262.641.851.851,0,0,1-.258.625.86.86,0,0,1-.633.258.873.873,0,0,1-.637-.258A.863.863,0,0,1,97.585-10.594ZM97.874,0V-7.148h1.234V0Zm13.78-6.352a3.879,3.879,0,0,1,1.684,1.266,3.117,3.117,0,0,1,.566,1.867,3.365,3.365,0,0,1-1,2.543,3.678,3.678,0,0,1-2.66.965A3.647,3.647,0,0,1,107.974-.4a3.411,3.411,0,0,1-1.234-1.965l1.234-.609A3.075,3.075,0,0,0,108.8-1.4a2.032,2.032,0,0,0,1.441.535,2.332,2.332,0,0,0,1.656-.59,2,2,0,0,0,.633-1.535,2.1,2.1,0,0,0-.441-1.332,3.352,3.352,0,0,0-1.332-.957l-1.391-.594a3.954,3.954,0,0,1-1.7-1.227,2.923,2.923,0,0,1-.559-1.8,2.568,2.568,0,0,1,.906-2.016,3.373,3.373,0,0,1,2.313-.8,3.5,3.5,0,0,1,1.785.438,2.967,2.967,0,0,1,1.176,1.289l-1.125.719a2.941,2.941,0,0,0-.859-.988,1.872,1.872,0,0,0-1.078-.324,1.736,1.736,0,0,0-1.254.469,1.585,1.585,0,0,0-.488,1.2,1.585,1.585,0,0,0,.375,1.055,3.133,3.133,0,0,0,1.164.789Zm9.488,1.969a2.057,2.057,0,0,0-.629-1.457,2.228,2.228,0,0,0-1.551-.512,2.134,2.134,0,0,0-1.484.535,2.153,2.153,0,0,0-.687,1.434Zm1.313.992H116.79v.109a2.619,2.619,0,0,0,.656,1.855,2.226,2.226,0,0,0,1.711.707,2.28,2.28,0,0,0,1.3-.387,3.381,3.381,0,0,0,1.023-1.168l.93.625a3.771,3.771,0,0,1-1.375,1.461A3.747,3.747,0,0,1,119.1.3a3.447,3.447,0,0,1-2.641-1.078A3.974,3.974,0,0,1,115.447-3.6a3.867,3.867,0,0,1,1-2.75,3.36,3.36,0,0,1,2.57-1.07,3.23,3.23,0,0,1,2.512,1.016,3.962,3.962,0,0,1,.926,2.773Zm3.5-.164a2.749,2.749,0,0,0,.664,1.93A2.267,2.267,0,0,0,128.38-.9a2.179,2.179,0,0,0,1.684-.664,2.614,2.614,0,0,0,.613-1.844,3.18,3.18,0,0,0-.613-2.07,2.083,2.083,0,0,0-1.707-.75,2.246,2.246,0,0,0-1.758.711A2.823,2.823,0,0,0,125.958-3.555Zm-1.18,7.039V-7.148h1.164V-5.8a3.023,3.023,0,0,1,1.094-1.187,2.856,2.856,0,0,1,1.516-.414,3.162,3.162,0,0,1,2.484,1.055,4.054,4.054,0,0,1,.938,2.8,4.111,4.111,0,0,1-.918,2.816A3.11,3.11,0,0,1,128.6.3a2.885,2.885,0,0,1-1.539-.4,2.964,2.964,0,0,1-1.07-1.2V3.484Zm14.7-7.867a2.057,2.057,0,0,0-.629-1.457,2.228,2.228,0,0,0-1.551-.512,2.134,2.134,0,0,0-1.484.535,2.153,2.153,0,0,0-.687,1.434Zm1.313.992h-5.664v.109a2.619,2.619,0,0,0,.656,1.855,2.226,2.226,0,0,0,1.711.707,2.28,2.28,0,0,0,1.3-.387,3.38,3.38,0,0,0,1.023-1.168l.93.625a3.771,3.771,0,0,1-1.375,1.461A3.747,3.747,0,0,1,137.43.3a3.447,3.447,0,0,1-2.641-1.078A3.974,3.974,0,0,1,133.782-3.6a3.867,3.867,0,0,1,1-2.75,3.36,3.36,0,0,1,2.57-1.07,3.23,3.23,0,0,1,2.512,1.016,3.962,3.962,0,0,1,.926,2.773ZM143.113,0V-7.148h1.2v1.1a3,3,0,0,1,1.109-1.023,3.216,3.216,0,0,1,1.5-.336,2.763,2.763,0,0,1,1.977.672,2.445,2.445,0,0,1,.711,1.867V0h-1.25V-4.211a2.415,2.415,0,0,0-.457-1.613,1.768,1.768,0,0,0-1.41-.527,2.43,2.43,0,0,0-1,.2,1.97,1.97,0,0,0-.746.566,1.734,1.734,0,0,0-.324.641,5.439,5.439,0,0,0-.1,1.25V0Zm10.542-7.148v3.516a3.743,3.743,0,0,0,.457,2.152,1.8,1.8,0,0,0,1.543.613,1.789,1.789,0,0,0,1.535-.605,3.791,3.791,0,0,0,.449-2.16V-7.148h1.25v4.172a3.33,3.33,0,0,1-.828,2.449A3.3,3.3,0,0,1,155.624.3,3.263,3.263,0,0,1,153.2-.531a3.333,3.333,0,0,1-.828-2.445V-7.148ZM161.737,0V-12.109h1.2v6.063a3,3,0,0,1,1.109-1.023,3.216,3.216,0,0,1,1.5-.336,2.763,2.763,0,0,1,1.977.672,2.445,2.445,0,0,1,.711,1.867V0h-1.25V-4.211a2.415,2.415,0,0,0-.457-1.613,1.768,1.768,0,0,0-1.41-.527,2.43,2.43,0,0,0-1,.2,1.97,1.97,0,0,0-.746.566,1.734,1.734,0,0,0-.324.641,5.439,5.439,0,0,0-.1,1.25V0Zm14.718,0V-11.437h1.359v4.4h6.078v-4.4h1.383V0h-1.383V-5.742h-6.078V0Zm17.378-3.508a2.815,2.815,0,0,0-.66-1.949,2.2,2.2,0,0,0-1.723-.738,2.2,2.2,0,0,0-1.719.68,2.722,2.722,0,0,0-.617,1.9,2.925,2.925,0,0,0,.621,2,2.227,2.227,0,0,0,1.762.7,2.2,2.2,0,0,0,1.715-.684A2.738,2.738,0,0,0,193.833-3.508Zm1.188-3.641V0h-1.187V-1.3a3.125,3.125,0,0,1-1.1,1.191,2.8,2.8,0,0,1-1.5.41,3.159,3.159,0,0,1-2.48-1.059,4.058,4.058,0,0,1-.941-2.8,4.11,4.11,0,0,1,.914-2.809,3.089,3.089,0,0,1,2.445-1.043,2.936,2.936,0,0,1,1.559.4A2.9,2.9,0,0,1,193.8-5.8V-7.148Zm3.113,1.008h-1.312V-7.148h1.313v-2.883h1.25v2.883H200.7v1.008h-1.312V0h-1.25Zm4.207-4.453a.858.858,0,0,1,.262-.629.867.867,0,0,1,.637-.262.851.851,0,0,1,.629.266.88.88,0,0,1,.262.641.851.851,0,0,1-.258.625.86.86,0,0,1-.633.258.873.873,0,0,1-.637-.258A.863.863,0,0,1,202.34-10.594ZM202.629,0V-7.148h1.234V0Z" transform="translate(617.625 115)" fill="#666"/>
    </g>
  </g>
</svg>
