<svg xmlns="http://www.w3.org/2000/svg" width="168.856" height="30.852" viewBox="0 0 168.856 30.852">
  <g id="Group_8583" data-name="Group 8583" transform="translate(-20 -17)">
    <g id="Group_8576" data-name="Group 8576" transform="translate(-487.468 -23.006)">
      <path id="Subtraction_8" data-name="Subtraction 8" d="M.071,29.318a.059.059,0,0,1-.053-.032C-.06,29.151.01,28.4,2.344,24.335a40.36,40.36,0,0,1,5.011-6.479c2.029-2.286,3.946-4.445,4.7-6.587,1.347-3.835.2-7.6-2.676-8.763a4.261,4.261,0,0,0-1.6-.308A6.226,6.226,0,0,0,4.224,3.484h-2C2.6,2.9,4.661,0,8.1,0A6.469,6.469,0,0,1,9.376.13,6.736,6.736,0,0,1,12.24,1.419a6.667,6.667,0,0,1,1.775,2.162,9.354,9.354,0,0,1,.952,5.108,9.554,9.554,0,0,1-.845,3.063A15.875,15.875,0,0,1,12.4,14.624a49.868,49.868,0,0,1-4.774,5.3c-1.189,1.2-2.313,2.335-3.274,3.47A33.51,33.51,0,0,0,.178,29.176a.553.553,0,0,1-.078.136A.074.074,0,0,1,.071,29.318Z" transform="translate(521.826 40.006)" fill="#e4265f"/>
      <path id="Subtraction_10" data-name="Subtraction 10" d="M12.85,25.757h0c-.807-.658-1.611-1.347-2.39-2.047H12.85v2.047ZM9.462,22.8h0a47,47,0,0,1-5.985-6.644H9.462v6.644ZM1.9,13.713h0A15.715,15.715,0,0,1,.3,9.858,8.456,8.456,0,0,1,.145,6.1,7.612,7.612,0,0,1,1.462,3.04,6.671,6.671,0,0,1,3.633,1.177,11.252,11.252,0,0,1,9.048,0c.137,0,.276,0,.413,0V5.936H1.9v7.776Z" transform="translate(507.468 45.101)" fill="#e4265f"/>
      <path id="Subtraction_12" data-name="Subtraction 12" d="M16.164,23.735H13.4a41.551,41.551,0,0,1,2.76-3.623v3.623Zm-4.6,0H7.571V16.164H0V7.571H7.571V0h8.594V7.571H23.1a28.1,28.1,0,0,1-4.264,5.542h0c-.882.983-1.794,2-2.65,3.05h-.017v.021a27.315,27.315,0,0,0-2.462,3.5,41.762,41.762,0,0,0-2.1,3.966l-.037.087Zm12.173-7.571H19.852l.12-.12L20,16.019c1.266-1.264,2.575-2.572,3.738-3.935v4.079Z" transform="translate(510.022 44.193)" fill="#0d9a89"/>
    </g>
    <g id="Group_8574" data-name="Group 8574" transform="translate(-558.677 -37.186)">
      <path id="Path_1871" data-name="Path 1871" d="M15.571-10.081H11.3L6.746-18.172v8.092h-3.7V-27.4h5.3a7.633,7.633,0,0,1,4.732,1.224,4.38,4.38,0,0,1,1.573,3.685,4.554,4.554,0,0,1-1.077,3.052,4.2,4.2,0,0,1-2.78,1.479ZM6.746-20.018H7.3a5.932,5.932,0,0,0,2.969-.491,1.917,1.917,0,0,0,.722-1.709,2.053,2.053,0,0,0-.775-1.816A5.512,5.512,0,0,0,7.3-24.572H6.746Zm9.866,7.737,2.058-2.33A3.157,3.157,0,0,0,19.924-13.1a3.535,3.535,0,0,0,1.94.55,3.171,3.171,0,0,0,2.058-.615,2.023,2.023,0,0,0,.757-1.656q0-1.23-2.52-2.449-.816-.39-1.289-.639a9.618,9.618,0,0,1-3.147-2.313,4.264,4.264,0,0,1-.875-2.691,4.336,4.336,0,0,1,1.7-3.519,6.771,6.771,0,0,1,4.407-1.378,6.2,6.2,0,0,1,2.715.55,5.522,5.522,0,0,1,2.017,1.721L25.5-23.448a2.677,2.677,0,0,0-1.035-1.13,3.059,3.059,0,0,0-1.556-.373,2.719,2.719,0,0,0-1.774.55,1.754,1.754,0,0,0-.674,1.425q0,1.372,2.674,2.508.532.225.816.355a9.13,9.13,0,0,1,3.259,2.271,4.374,4.374,0,0,1,1.059,2.886A4.9,4.9,0,0,1,26.6-11.068a6.557,6.557,0,0,1-4.466,1.449,7.766,7.766,0,0,1-3.407-.686A4.608,4.608,0,0,1,16.612-12.281ZM46.186-27.4v10.777a6.88,6.88,0,0,1-1.857,5.264q-1.857,1.739-5.6,1.739-3.8,0-5.655-1.739a6.88,6.88,0,0,1-1.857-5.264V-27.4H34.9v10.2a4.775,4.775,0,0,0,.946,3.224A3.555,3.555,0,0,0,38.675-12.9a3.636,3.636,0,0,0,2.863-1.088,4.7,4.7,0,0,0,.97-3.218V-27.4Zm7.536,14.2h2.058a5.822,5.822,0,0,0,4.241-1.325,5.727,5.727,0,0,0,1.331-4.2,5.731,5.731,0,0,0-1.331-4.194,5.805,5.805,0,0,0-4.241-1.331H53.722Zm-3.7,3.123V-27.4h4.72a19.512,19.512,0,0,1,4.4.39,7.691,7.691,0,0,1,2.827,1.3,7.493,7.493,0,0,1,2.384,2.952,9.679,9.679,0,0,1,.81,4.052,9.59,9.59,0,0,1-.828,4.087,7.471,7.471,0,0,1-2.425,2.94,7.776,7.776,0,0,1-2.632,1.224,18.171,18.171,0,0,1-4.241.373H50.019Z" transform="translate(617 88)" fill="#fff"/>
      <path id="Path_1872" data-name="Path 1872" d="M1.3-12.281l2.058-2.33A3.157,3.157,0,0,0,4.611-13.1a3.535,3.535,0,0,0,1.94.55,3.171,3.171,0,0,0,2.058-.615,2.023,2.023,0,0,0,.757-1.656q0-1.23-2.52-2.449-.816-.39-1.289-.639a9.618,9.618,0,0,1-3.147-2.313,4.264,4.264,0,0,1-.875-2.691,4.336,4.336,0,0,1,1.7-3.519A6.771,6.771,0,0,1,7.64-27.813a6.2,6.2,0,0,1,2.715.55,5.522,5.522,0,0,1,2.017,1.721l-2.189,2.094a2.677,2.677,0,0,0-1.035-1.13,3.059,3.059,0,0,0-1.556-.373,2.719,2.719,0,0,0-1.774.55,1.754,1.754,0,0,0-.674,1.425q0,1.372,2.674,2.508.532.225.816.355a9.13,9.13,0,0,1,3.259,2.271,4.374,4.374,0,0,1,1.059,2.886,4.9,4.9,0,0,1-1.662,3.886A6.557,6.557,0,0,1,6.823-9.619a7.766,7.766,0,0,1-3.407-.686A4.608,4.608,0,0,1,1.3-12.281Zm14.752,2.2V-27.4h3.7v17.319Zm6.152,0L24.84-27.4h3.88l3.336,10.2a8.445,8.445,0,0,1,.231.935q.124.615.231,1.408.095-.8.213-1.437a6.539,6.539,0,0,1,.225-.929l3.4-10.174h3.821l2.65,17.319H39.308L38.042-20.526q-.142-1.159-.189-1.751t-.047-1.1q0-.272.006-.408t.018-.243q-.177,1.017-.337,1.757a10.522,10.522,0,0,1-.29,1.118L33.535-10.081H31.453L27.845-21.153q-.047-.154-.207-.852t-.444-2.035v.509a25.163,25.163,0,0,1-.213,2.957l-.012.047L25.716-10.081ZM62.956-18.7a9.021,9.021,0,0,1-.692,3.513,8.614,8.614,0,0,1-1.993,2.91,9.574,9.574,0,0,1-3.04,1.976,9.233,9.233,0,0,1-3.5.686,9.24,9.24,0,0,1-3.105-.538A9.6,9.6,0,0,1,47.838-11.7a8.839,8.839,0,0,1-2.5-3.111,8.871,8.871,0,0,1-.869-3.892,8.988,8.988,0,0,1,.686-3.508,8.677,8.677,0,0,1,2.011-2.916,9.3,9.3,0,0,1,3.023-1.964,9.346,9.346,0,0,1,3.543-.7,9.228,9.228,0,0,1,3.519.7,9.473,9.473,0,0,1,3.023,1.964,8.74,8.74,0,0,1,2,2.922A9,9,0,0,1,62.956-18.7ZM53.729-12.92a5.072,5.072,0,0,0,3.886-1.65A5.843,5.843,0,0,0,59.147-18.7a5.878,5.878,0,0,0-1.55-4.14,5.045,5.045,0,0,0-3.868-1.68,5.093,5.093,0,0,0-3.9,1.674,5.873,5.873,0,0,0-1.55,4.146A5.845,5.845,0,0,0,49.8-14.558,5.126,5.126,0,0,0,53.729-12.92Z" transform="translate(684.577 88)" fill="#0d9a89"/>
    </g>
  </g>
</svg>
