<svg xmlns="http://www.w3.org/2000/svg" width="24" height="24" viewBox="0 0 24 24">
  <defs>
    <style>
      .cls-1, .cls-2 {
        fill: #0d9a89;
      }

      .cls-2 {
        opacity: 0.4;
      }

      .cls-3 {
        fill: none;
        opacity: 0;
      }
    </style>
  </defs>
  <g id="vuesax_bulk_bookmark-2" data-name="vuesax/bulk/bookmark-2" transform="translate(-620 -188)">
    <g id="bookmark-2">
      <path id="Vector" class="cls-1" d="M10,2.96v7.12c0,1.99-1.41,2.76-3.14,1.72L5.54,11a1.147,1.147,0,0,0-1.08,0l-1.32.8C1.41,12.84,0,12.07,0,10.08V2.99A2.657,2.657,0,0,1,3,0H7A2.652,2.652,0,0,1,10,2.96Z" transform="translate(627 190)"/>
      <path id="Vector-2" data-name="Vector" class="cls-2" d="M20,6.94V9.97c0,5.05-2,7.07-7,7.07H7c-5,0-7-2.02-7-7.07V6.94C0,2.7,1.41.6,4.82.03H5V7.12C5,9.11,6.41,9.88,8.14,8.84l1.32-.8a1.148,1.148,0,0,1,1.08,0l1.32.8C13.59,9.88,15,9.11,15,7.12V0C18.54.52,20,2.63,20,6.94Z" transform="translate(622 192.96)"/>
      <path id="Vector-3" data-name="Vector" class="cls-3" d="M0,0H24V24H0Z" transform="translate(620 188)"/>
    </g>
  </g>
</svg>
