<svg xmlns="http://www.w3.org/2000/svg" width="24" height="24" viewBox="0 0 24 24">
  <g id="vuesax_bulk_document-filter" data-name="vuesax/bulk/document-filter" transform="translate(-620 -316)">
    <g id="document-filter">
      <path id="Vector" d="M0,0H24V24H0Z" transform="translate(644 340) rotate(180)" fill="none" opacity="0" />
      <path id="Vector-2" data-name="Vector"
        d="M1.23,0H9.36a1.24,1.24,0,0,1,1.23,1.25V2.62a2.316,2.316,0,0,1-.62,1.43L7.32,6.42A2.047,2.047,0,0,0,6.7,7.85v2.68a1.427,1.427,0,0,1-.55,1.06l-.86.56a1.254,1.254,0,0,1-1.91-1.06V7.78a2.462,2.462,0,0,0-.49-1.31L.55,3.97A2.049,2.049,0,0,1,0,2.72V1.29A1.25,1.25,0,0,1,1.23,0Z"
        transform="translate(622 317)" fill="#0d9a89" />
      <path id="Vector-3" data-name="Vector"
        d="M15,0H12.6a.5.5,0,0,0-.5.5V1.62a3.81,3.81,0,0,1-1.05,2.49L8.33,6.54c-.03.07-.08.17-.11.25V9.54a2.907,2.907,0,0,1-1.28,2.35l-.82.53a2.762,2.762,0,0,1-1.48.43A2.792,2.792,0,0,1,3.3,12.5,2.731,2.731,0,0,1,2,10.87V8.21a.469.469,0,0,0-.15-.35l-1-1A.5.5,0,0,0,0,7.21V15a5,5,0,0,0,5,5H15a5,5,0,0,0,5-5V5A5,5,0,0,0,15,0Z"
        transform="translate(622 318)" fill="#0d9a89" opacity="0.4" />
      <g id="Group">
        <path id="Vector-4" data-name="Vector"
          d="M5.75,1.5h-5A.755.755,0,0,1,0,.75.755.755,0,0,1,.75,0h5A.755.755,0,0,1,6.5.75.755.755,0,0,1,5.75,1.5Z"
          transform="translate(632.25 328.25)" fill="#0d9a89" />
      </g>
      <g id="Group-2" data-name="Group">
        <path id="Vector-5" data-name="Vector"
          d="M7.75,1.5h-7A.755.755,0,0,1,0,.75.755.755,0,0,1,.75,0h7A.755.755,0,0,1,8.5.75.755.755,0,0,1,7.75,1.5Z"
          transform="translate(630.25 332.25)" fill="#0d9a89" />
      </g>
    </g>
  </g>
</svg>