<svg id="Layer_2" data-name="Layer 2" xmlns="http://www.w3.org/2000/svg" width="24" height="24" viewBox="0 0 24 24">
  <g id="grid">
    <rect id="Rectangle_5808" data-name="Rectangle 5808" width="24" height="24" fill="#a1a5b7" opacity="0" />
    <path id="Path_1865" data-name="Path 1865"
      d="M9,3H5A2,2,0,0,0,3,5V9a2,2,0,0,0,2,2H9a2,2,0,0,0,2-2V5A2,2,0,0,0,9,3ZM5,9V5H9V9Z" fill="#a1a5b7" />
    <path id="Path_1866" data-name="Path 1866"
      d="M19,3H15a2,2,0,0,0-2,2V9a2,2,0,0,0,2,2h4a2,2,0,0,0,2-2V5A2,2,0,0,0,19,3ZM15,9V5h4V9Z" fill="#a1a5b7" />
    <path id="Path_1867" data-name="Path 1867"
      d="M9,13H5a2,2,0,0,0-2,2v4a2,2,0,0,0,2,2H9a2,2,0,0,0,2-2V15A2,2,0,0,0,9,13ZM5,19V15H9v4Z" fill="#a1a5b7" />
    <path id="Path_1868" data-name="Path 1868"
      d="M19,13H15a2,2,0,0,0-2,2v4a2,2,0,0,0,2,2h4a2,2,0,0,0,2-2V15A2,2,0,0,0,19,13Zm-4,6V15h4v4Z" fill="#a1a5b7" />
  </g>
</svg>