<svg id="Group_8601" data-name="Group 8601" xmlns="http://www.w3.org/2000/svg" width="24.13" height="24"
  viewBox="0 0 24.13 24">
  <g id="text">
    <rect id="Rectangle_1169" data-name="Rectangle 1169" width="24" height="24" fill="#a1a5b7" opacity="0" />
    <path id="Path_309" data-name="Path 309"
      d="M20,4H4A1,1,0,0,0,3,5V8A1,1,0,0,0,5,8V6h6V19H9a1,1,0,0,0,0,2h6a1,1,0,0,0,0-2H13V6h6V8a1,1,0,0,0,2,0V5A1,1,0,0,0,20,4Z"
      fill="#a1a5b7" />
  </g>
  <text id="_2" data-name="2" transform="translate(18.13 21)" fill="#a1a5b7" font-size="10"
    font-family="Montserrat-Medium, Montserrat" font-weight="500" letter-spacing="0.05em">
    <tspan x="0" y="0">2</tspan>
  </text>
</svg>