<svg id="Group_9057" data-name="Group 9057" xmlns="http://www.w3.org/2000/svg" width="24" height="24"
  viewBox="0 0 24 24">
  <circle id="Ellipse_1030" data-name="Ellipse 1030" cx="10" cy="10" r="10" transform="translate(2 2)" fill="#0d9a89"
    opacity="0.3" />
  <path id="Path_1897" data-name="Path 1897"
    d="M12,16a1,1,0,1,1-1,1A1,1,0,0,1,12,16Zm-1.409-1.132V13.209h1.26A2.71,2.71,0,0,0,14.6,10.4a2.71,2.71,0,0,0-2.751-2.814A2.681,2.681,0,0,0,9.121,10.4H7.336a4.433,4.433,0,0,1,4.515-4.473,4.473,4.473,0,1,1,0,8.946Z"
    fill="#0d9a89" fill-rule="evenodd" />
</svg>