<svg xmlns="http://www.w3.org/2000/svg" width="24" height="24" viewBox="0 0 24 24">
  <g id="document-favorite" transform="translate(-236 -188)">
    <path id="Vector"
      d="M18,8.19H15.11a4.306,4.306,0,0,1-4.3-4.3V1a1,1,0,0,0-1-1H5.57A5.277,5.277,0,0,0,0,5.57v8.86A5.277,5.277,0,0,0,5.57,20h7.86A5.277,5.277,0,0,0,19,14.43V9.19A1,1,0,0,0,18,8.19Z"
      transform="translate(238.5 190)" fill="#fff" opacity="0.4" />
    <path id="Vector-2" data-name="Vector"
      d="M1.12.195A.654.654,0,0,0,0,.635v3.49a2.726,2.726,0,0,0,2.75,2.67c.95.01,2.27.01,3.4.01a.631.631,0,0,0,.47-1.07C5.18,4.285,2.6,1.675,1.12.195Z"
      transform="translate(250.68 190.015)" fill="#fff" />
    <path id="Vector-3" data-name="Vector"
      d="M4.751.092a1.8,1.8,0,0,0-1.66.27,1.79,1.79,0,0,0-1.65-.27,2.326,2.326,0,0,0-1.32,2.97A3.926,3.926,0,0,0,3.1,5.632a4,4,0,0,0,2.98-2.57A2.34,2.34,0,0,0,4.751.092Z"
      transform="translate(242.409 200.638)" fill="#fff" />
    <path id="Vector-4" data-name="Vector" d="M0,0H24V24H0Z" transform="translate(236 188)" fill="none" opacity="0" />
  </g>
</svg>