<svg id="Group_8197" data-name="Group 8197" xmlns="http://www.w3.org/2000/svg" width="24" height="24" viewBox="0 0 24 24">
  <rect id="Rectangle_4854" data-name="Rectangle 4854" width="24" height="24" fill="none"/>
  <circle id="Ellipse_876" data-name="Ellipse 876" cx="10" cy="10" r="10" transform="translate(2 2)" fill="#f79d25" opacity="0.3"/>
  <path id="Path_1684" data-name="Path 1684" d="M12,16a1,1,0,1,1-1,1A1,1,0,0,1,12,16Zm-1.409-1.132V13.209h1.26A2.71,2.71,0,0,0,14.6,10.4a2.71,2.71,0,0,0-2.751-2.814A2.681,2.681,0,0,0,9.121,10.4H7.336a4.433,4.433,0,0,1,4.515-4.473,4.473,4.473,0,1,1,0,8.946Z" fill="#f79d25" fill-rule="evenodd"/>
</svg>
